<svg width="512" height="512" viewBox="0 0 512 512" fill="none" xmlns="http://www.w3.org/2000/svg">
    <defs>
        <linearGradient id="glassGradient" x1="0" y1="0" x2="512" y2="512" gradientUnits="userSpaceOnUse">
            <stop stop-color="#0d6efd" />
            <stop offset="1" stop-color="#0dcaf0" />
        </linearGradient>
        <filter id="glassBlur" x="-50" y="-50" width="612" height="612" filterUnits="userSpaceOnUse">
            <feGaussianBlur stdDeviation="20" />
        </filter>
    </defs>
    <rect width="512" height="512" rx="120" fill="url(#glassGradient)" />
    <rect x="10" y="10" width="492" height="492" rx="110" stroke="white" stroke-opacity="0.3" stroke-width="20" />
    
    <path d="M256 120C256 120 200 200 160 240C120 280 120 340 160 380C200 420 256 420 256 420C256 420 312 420 352 380C392 340 392 280 352 240C312 200 256 120 256 120Z" fill="white" fill-opacity="0.9"/>
    <path d="M256 120L256 420" stroke="#0d6efd" stroke-width="5" stroke-linecap="round" stroke-opacity="0.5"/>
</svg>